<?xml version="1.0" encoding="UTF-8"?>
<svg id="Layer_1" xmlns="http://www.w3.org/2000/svg" version="1.1" viewBox="0 0 841.89 595.28">
  <!-- Generator: Adobe Illustrator 29.3.0, SVG Export Plug-In . SVG Version: 2.1.0 Build 56)  -->
  <defs>
    <style>
      .st0 {
        fill: #fff;
      }
    </style>
  </defs>
  <path class="st0" d="M46.44,244.43l15.35,66.18,18.41-66.18h11.93l18.45,66.3,15.36-66.3h12.1l-21.4,81.45h-11.59l-18.8-67.54-18.91,67.54h-11.59l-21.29-81.45h11.98Z"/>
  <path class="st0" d="M187.92,272.43c5.25,5.1,7.87,12.59,7.87,22.49s-2.31,17.47-6.94,23.71c-4.62,6.24-11.8,9.36-21.53,9.36-8.11,0-14.55-2.76-19.33-8.28-4.77-5.52-7.16-12.94-7.16-22.24,0-9.97,2.51-17.91,7.54-23.82s11.78-8.86,20.26-8.86c7.6,0,14.02,2.55,19.27,7.65h.02ZM181.72,311.89c2.43-5,3.65-10.57,3.65-16.7,0-5.54-.88-10.04-2.63-13.51-2.78-5.46-7.57-8.2-14.36-8.2-6.03,0-10.42,2.33-13.16,6.98s-4.11,10.26-4.11,16.84,1.37,11.57,4.11,15.78,7.09,6.31,13.05,6.31c6.54,0,11.03-2.5,13.46-7.5h0Z"/>
  <path class="st0" d="M198.62,340.91c4.47-.15,7.16-.55,8.07-1.19.91-.65,1.36-2.67,1.36-6.07v-66.87h9.98v67.92c0,4.32-.7,7.56-2.11,9.7-2.33,3.62-6.75,5.43-13.25,5.43-.48,0-.99-.02-1.52-.06-.54-.04-1.38-.11-2.52-.22v-8.65h0ZM218.02,255.96h-9.98v-11.53h9.98v11.53Z"/>
  <path class="st0" d="M272.5,269.66c4.19,3.25,6.72,8.85,7.57,16.8h-9.7c-.59-3.66-1.94-6.7-4.05-9.12-2.11-2.42-5.49-3.63-10.15-3.63-6.36,0-10.9,3.1-13.64,9.3-1.77,4.02-2.66,8.99-2.66,14.9s1.26,10.95,3.77,15.01c2.51,4.06,6.47,6.09,11.87,6.09,4.14,0,7.42-1.26,9.84-3.78,2.42-2.52,4.09-5.97,5.02-10.36h9.7c-1.11,7.87-3.88,13.63-8.32,17.27-4.44,3.64-10.11,5.46-17.02,5.46-7.76,0-13.95-2.84-18.58-8.51-4.62-5.67-6.93-12.76-6.93-21.26,0-10.42,2.53-18.54,7.6-24.34,5.06-5.8,11.51-8.71,19.35-8.71,6.69,0,12.13,1.63,16.33,4.88h0Z"/>
  <path class="st0" d="M290.05,244.43h10.15v11.31h-10.15v-11.31ZM290.05,266.78h10.15v59.11h-10.15v-59.11h0Z"/>
  <path class="st0" d="M351.96,268.13c3.93,1.98,6.92,4.54,8.98,7.68,1.98,2.99,3.31,6.49,3.97,10.48.59,2.74.88,7.1.88,13.09h-43.19c.18,6.04,1.6,10.89,4.24,14.54,2.64,3.65,6.73,5.48,12.27,5.48,5.17,0,9.3-1.73,12.38-5.18,1.72-2,2.95-4.33,3.67-6.96h9.81c-.26,2.18-1.12,4.61-2.58,7.29-1.46,2.68-3.09,4.87-4.89,6.57-3.01,2.96-6.73,4.95-11.17,5.99-2.38.59-5.08.89-8.09.89-7.35,0-13.57-2.69-18.68-8.07s-7.66-12.91-7.66-22.59,2.57-17.28,7.71-23.23c5.14-5.95,11.87-8.93,20.17-8.93,4.19,0,8.25.99,12.18,2.97v-.02ZM355.53,291.45c-.4-4.32-1.34-7.78-2.8-10.37-2.71-4.8-7.24-7.21-13.58-7.21-4.55,0-8.36,1.65-11.44,4.96-3.08,3.31-4.71,7.51-4.89,12.61h32.71Z"/>
  <path class="st0" d="M417.66,269.66c4.19,3.25,6.72,8.85,7.57,16.8h-9.7c-.59-3.66-1.94-6.7-4.05-9.12-2.11-2.42-5.49-3.63-10.15-3.63-6.36,0-10.9,3.1-13.64,9.3-1.77,4.02-2.66,8.99-2.66,14.9s1.26,10.95,3.77,15.01c2.51,4.06,6.47,6.09,11.87,6.09,4.14,0,7.42-1.26,9.84-3.78,2.42-2.52,4.09-5.97,5.02-10.36h9.7c-1.11,7.87-3.88,13.63-8.32,17.27-4.44,3.64-10.11,5.46-17.02,5.46-7.76,0-13.95-2.84-18.58-8.51-4.62-5.67-6.93-12.76-6.93-21.26,0-10.42,2.53-18.54,7.6-24.34,5.06-5.8,11.51-8.71,19.35-8.71,6.69,0,12.13,1.63,16.33,4.88h0Z"/>
  <path class="st0" d="M435.21,244.15h9.98v30.39c2.37-2.99,4.49-5.1,6.38-6.32,3.22-2.11,7.23-3.16,12.03-3.16,8.61,0,14.45,3.01,17.52,9.04,1.66,3.29,2.5,7.86,2.5,13.7v38.09h-10.26v-37.43c0-4.36-.55-7.56-1.66-9.59-1.81-3.25-5.21-4.88-10.2-4.88-4.14,0-7.89,1.42-11.26,4.27-3.36,2.85-5.05,8.23-5.05,16.14v31.49h-9.98v-81.73h0Z"/>
  <path class="st0" d="M532.58,244.43h37.02c6.1,0,11.12.91,15.08,2.72,7.51,3.48,11.27,9.89,11.27,19.24,0,4.88-1.01,8.87-3.02,11.98s-4.83,5.6-8.46,7.49c3.18,1.29,5.57,2.99,7.18,5.1,1.61,2.11,2.5,5.53,2.69,10.26l.39,10.92c.11,3.11.37,5.42.78,6.93.67,2.59,1.85,4.25,3.55,4.99v1.83h-13.53c-.37-.7-.67-1.61-.89-2.72-.22-1.11-.41-3.25-.55-6.43l-.67-13.58c-.25-5.32-2.17-8.89-5.76-10.7-2.05-1-5.26-1.5-9.64-1.5h-24.4v34.93h-11.03v-81.45h0ZM568.42,281.75c5.03,0,9.01-1.03,11.94-3.1s4.39-5.8,4.39-11.2c0-5.8-2.05-9.76-6.15-11.87-2.19-1.11-5.12-1.66-8.79-1.66h-26.21v27.83h24.82Z"/>
  <path class="st0" d="M643.75,289.94c2.29-.29,3.83-1.25,4.6-2.88.44-.89.66-2.17.66-3.84,0-3.41-1.21-5.89-3.62-7.43-2.42-1.54-5.88-2.31-10.38-2.31-5.2,0-8.89,1.41-11.07,4.23-1.22,1.56-2.01,3.88-2.38,6.97h-9.32c.18-7.34,2.56-12.45,7.12-15.32s9.85-4.31,15.87-4.31c6.98,0,12.65,1.33,17,3.99,4.32,2.66,6.48,6.8,6.48,12.42v34.21c0,1.04.21,1.87.64,2.5.42.63,1.32.94,2.69.94.44,0,.94-.03,1.5-.08.55-.06,1.15-.14,1.77-.25v7.37c-1.55.44-2.74.72-3.55.83s-1.92.17-3.33.17c-3.44,0-5.93-1.22-7.49-3.66-.81-1.29-1.39-3.12-1.72-5.49-2.03,2.66-4.95,4.97-8.76,6.93s-8,2.94-12.59,2.94c-5.51,0-10.01-1.67-13.5-5.01s-5.24-7.52-5.24-12.54c0-5.5,1.72-9.76,5.16-12.79s7.95-4.89,13.53-5.59l15.91-1.99h.02ZM622.74,316.91c2.11,1.66,4.6,2.49,7.49,2.49,3.51,0,6.91-.81,10.2-2.44,5.54-2.69,8.32-7.1,8.32-13.23v-8.03c-1.22.78-2.79,1.43-4.7,1.95-1.92.52-3.8.89-5.64,1.11l-6.03.78c-3.62.48-6.33,1.24-8.16,2.27-3.09,1.73-4.63,4.5-4.63,8.3,0,2.88,1.05,5.14,3.16,6.8h0Z"/>
  <path class="st0" d="M665.65,340.91c4.47-.15,7.16-.55,8.07-1.19.91-.65,1.36-2.67,1.36-6.07v-66.87h9.98v67.92c0,4.32-.7,7.56-2.11,9.7-2.33,3.62-6.75,5.43-13.25,5.43-.48,0-.99-.02-1.52-.06s-1.38-.11-2.52-.22v-8.65h0ZM685.06,255.96h-9.98v-11.53h9.98v11.53Z"/>
  <path class="st0" d="M702.3,249.92h10.09v16.58h9.48v8.15h-9.48v38.76c0,2.07.7,3.46,2.11,4.16.78.41,2.07.61,3.88.61.48,0,1-.01,1.55-.04.55-.02,1.2-.09,1.94-.19v7.93c-1.15.33-2.34.57-3.58.72s-2.58.22-4.02.22c-4.66,0-7.82-1.19-9.48-3.58-1.66-2.38-2.5-5.48-2.5-9.29v-39.31h-8.04v-8.15h8.04v-16.58h.01Z"/>
  <path class="st0" d="M763.68,289.94c2.29-.29,3.83-1.25,4.6-2.88.44-.89.66-2.17.66-3.84,0-3.41-1.21-5.89-3.62-7.43-2.42-1.54-5.88-2.31-10.38-2.31-5.2,0-8.89,1.41-11.07,4.23-1.22,1.56-2.01,3.88-2.38,6.97h-9.32c.18-7.34,2.56-12.45,7.12-15.32s9.85-4.31,15.87-4.31c6.98,0,12.65,1.33,17,3.99,4.32,2.66,6.48,6.8,6.48,12.42v34.21c0,1.04.21,1.87.64,2.5.42.63,1.32.94,2.69.94.44,0,.94-.03,1.5-.08.55-.06,1.15-.14,1.77-.25v7.37c-1.55.44-2.74.72-3.55.83s-1.92.17-3.33.17c-3.44,0-5.93-1.22-7.49-3.66-.81-1.29-1.39-3.12-1.72-5.49-2.03,2.66-4.95,4.97-8.76,6.93s-8,2.94-12.59,2.94c-5.51,0-10.01-1.67-13.5-5.01s-5.24-7.52-5.24-12.54c0-5.5,1.72-9.76,5.16-12.79s7.95-4.89,13.53-5.59l15.91-1.99h.02ZM742.67,316.91c2.11,1.66,4.6,2.49,7.49,2.49,3.51,0,6.91-.81,10.2-2.44,5.54-2.69,8.32-7.1,8.32-13.23v-8.03c-1.22.78-2.79,1.43-4.7,1.95-1.92.52-3.8.89-5.64,1.11l-6.03.78c-3.62.48-6.33,1.24-8.16,2.27-3.09,1.73-4.63,4.5-4.63,8.3,0,2.88,1.05,5.14,3.16,6.8h0Z"/>
  <path class="st0" d="M795.29,266.5h9.48v10.26c.78-2,2.68-4.43,5.71-7.29,3.03-2.86,6.52-4.3,10.48-4.3.18,0,.5.02.94.06s1.2.11,2.27.22v10.54c-.59-.11-1.14-.18-1.64-.22s-1.04-.06-1.64-.06c-5.03,0-8.89,1.62-11.59,4.85s-4.05,6.96-4.05,11.17v34.16h-9.98v-59.38h.02Z"/>
</svg>